# xmcd
#
# Track frame offsets:
#	150
#	23810
#	37646
#	49511
#	61678
#	76494
#	92172
#	105210
#	118081
#	134451
#	145624
#	159466
#	172176
#	184659
#
# Disc length: 2630 seconds
#
# Revision: 1
# Processed by: cddbd v1.5.2PL0 Copyright (c) Steve Scherf et al.
# Submitted via: EasyCDDAExtractor 12.0.1.1
#
DISCID=a80a440e
DTITLE=Various Artist - 60's Greatest hits
DYEAR=2007
DGENRE=Pop
TTITLE0=Joe Cocker - With A Little Help From My Friends
TTITLE1=The Cowsills - The Rain, The Park And Other Things
TTITLE2=Herman's Hermits - Theres A Kind Of Hush
TTITLE3=Stone Poneys - Different Drum
TTITLE4=Marvin Gaye - I Heard It Through The Grape Vine
TTITLE5=The Mamas and The Papas - Monday Monday
TTITLE6=The Supremes - Stop In The Name Of Love
TTITLE7=The Isley Brothers - This Old Heart Of Mine
TTITLE8=Barry McGuire - Eve Of Destruction
TTITLE9=New Baudeville Band - Winchester Cathedral
TTITLE10=The Four Tops - Reach Out I'll Be There
TTITLE11=Stevie Wonder - For Once In My Life
TTITLE12=The Templations - My Girl
TTITLE13=Strawberry Alarm Clock - License And Peppermints
EXTD=
EXTT0=
EXTT1=
EXTT2=
EXTT3=
EXTT4=
EXTT5=
EXTT6=
EXTT7=
EXTT8=
EXTT9=
EXTT10=
EXTT11=
EXTT12=
EXTT13=
PLAYORDER=
